<svg width="64" height="61" viewBox="0 0 64 61" fill="none" xmlns="http://www.w3.org/2000/svg">
<path d="M30.0075 30.9704C30.0027 30.9704 30.0027 30.9704 29.9978 30.9704C29.7207 30.9704 29.4436 30.9509 29.1714 30.9218L31.6895 42.0023L32.9194 42.4299L30.0075 30.9704Z" fill="#B8D8D8"/>
<path d="M22.7836 23.9479C22.7836 23.8847 22.7788 23.8167 22.7788 23.7535C22.7788 23.5785 22.7885 23.4084 22.7982 23.2383L22.2197 23.4813L21.8892 24.6671L22.7836 23.9479Z" fill="#B8D8D8"/>
<path d="M22.8714 24.881C22.8422 24.6866 22.8179 24.4874 22.8033 24.2833L21.831 24.9345L21.6074 26.2515L22.8714 24.881Z" fill="#B8D8D8"/>
<path d="M23.0069 21.9893C23.0506 21.8046 23.1624 21.5373 23.2208 21.3575L23.143 21.3381C23.0409 21.5325 22.8853 21.8143 22.793 22.0185L23.0069 21.9893Z" fill="#B8D8D8"/>
<path d="M22.7986 22.9662C22.8181 22.7815 22.9202 22.4267 22.9591 22.2518L22.6722 22.2955C22.6722 22.2955 22.4 22.9419 22.3125 23.1946L22.7986 22.9662Z" fill="#B8D8D8"/>
<path d="M23.9452 27.6754C23.9452 27.6754 23.9695 27.7094 23.9209 27.6414L22.4771 33.3469C22.4771 33.3469 22.6861 34.0418 22.8854 34.4452L23.9452 27.6754Z" fill="#B8D8D8"/>
<path d="M24.7764 28.73C24.6938 28.6425 24.616 28.5551 24.5382 28.4676L23.9062 36.1073C23.9062 36.1073 24.3924 36.8557 24.7375 37.2494L24.7764 28.73Z" fill="#B8D8D8"/>
<path d="M22.9299 25.2211L21.5833 26.5382L21.4375 27.8357L23.0369 25.6537C22.998 25.5127 22.9591 25.3669 22.9299 25.2211Z" fill="#B8D8D8"/>
<path d="M23.1389 26.0036L21.5055 28.1176C21.5055 28.1176 21.4715 29.2014 21.5103 29.6145L23.2458 26.3146C23.2118 26.2126 23.1778 26.1105 23.1389 26.0036Z" fill="#B8D8D8"/>
<path d="M24.1787 28.0204L23.0752 34.6979C23.0752 34.6979 23.5224 35.6019 23.6877 35.8643L24.2759 28.1468C24.2419 28.1079 24.2127 28.0642 24.1787 28.0204Z" fill="#B8D8D8"/>
<path d="M37.9746 28.9342L45.1256 41.0109C45.777 40.6513 46.7152 40.0195 46.7152 40.0195L39.2726 28.1857C39.2726 28.1857 38.3732 28.7057 37.9746 28.9342Z" fill="#B8D8D8"/>
<path d="M45.1405 16.8816C45.1405 16.8816 45.0579 17.8924 45.0044 18.3444L53.7547 24.9781C53.7742 24.5699 53.7887 24.1617 53.7887 23.7535C53.7887 23.4521 53.7742 23.0245 53.7742 23.0245L45.1405 16.8816Z" fill="#B8D8D8"/>
<path d="M39.6031 3.59474L45.8255 6.00038C45.1595 5.40747 44.1241 4.62017 44.1241 4.62017L37.6294 2.31659C38.1204 2.6422 39.6031 3.59474 39.6031 3.59474Z" fill="#B8D8D8"/>
<path d="M37.7662 29.1382C37.7662 29.1382 36.93 29.4881 36.5654 29.6533L42.7295 42.1238C43.3323 41.8954 43.8963 41.6475 44.4213 41.3851L44.8199 41.0497L37.7662 29.1382Z" fill="#B8D8D8"/>
<path d="M42.7683 7.11809L49.4185 10.0194C49.0247 9.46541 48.4171 8.70241 48.4171 8.70241L41.3779 5.422C41.7474 5.85939 42.7683 7.11809 42.7683 7.11809Z" fill="#B8D8D8"/>
<path d="M33.3272 30.7274C33.3272 30.7274 32.6466 30.776 32.3354 30.81L36.5988 43.0909C37.0071 43.1152 37.2988 43.1444 37.6926 43.1347L37.7752 43.0764L33.3272 30.7274Z" fill="#B8D8D8"/>
<path d="M30.9848 30.8975C30.7612 30.9266 30.5327 30.9461 30.3042 30.9558L33.3182 42.5417C33.7654 42.6729 34.096 42.775 34.5287 42.8625L34.5675 42.8382L30.9848 30.8975Z" fill="#B8D8D8"/>
<path d="M36.3371 29.8284C36.3371 29.8284 35.4523 30.1005 35.0488 30.2269L40.5761 42.7654C41.1303 42.639 41.665 42.4883 42.1755 42.3183L42.4185 42.1287L36.3371 29.8284Z" fill="#B8D8D8"/>
<path d="M32.0882 30.8975L32.0153 30.8392C31.7576 30.8635 31.534 30.8732 31.2715 30.8781L34.9952 42.9208L36.1376 43.0618L32.0882 30.8975Z" fill="#B8D8D8"/>
<path d="M34.8008 30.3775C34.8008 30.3775 33.9695 30.533 33.5854 30.6108L38.0967 43.1152C38.7822 43.0764 39.4482 42.9937 40.0801 42.8722L40.2551 42.7508L34.8008 30.3775Z" fill="#B8D8D8"/>
<path d="M22.3071 33.0845L23.712 27.3012C23.6926 27.272 23.678 27.2429 23.6585 27.2089L21.9717 31.7723C21.9765 31.7723 22.1564 32.6471 22.3071 33.0845Z" fill="#B8D8D8"/>
<path d="M23.4883 26.8687C23.4543 26.8007 23.4251 26.7278 23.3911 26.6597L21.6216 29.8964L21.8355 31.4953L23.4883 26.8687Z" fill="#B8D8D8"/>
<path d="M51.3339 34.28L42.7974 24.6039L42.7002 24.638C42.4912 24.9344 42.2724 25.2211 42.0439 25.503L50.2304 36.2628C50.6533 35.5824 51.3339 34.28 51.3339 34.28Z" fill="#B8D8D8"/>
<path d="M48.66 38.4741L40.7506 26.9756L40.6194 26.9999C40.2499 27.3352 39.8659 27.656 39.4624 27.9524L46.9536 39.8591L48.66 38.4741Z" fill="#B8D8D8"/>
<path d="M52.982 29.9256L44.3094 21.6055L44.2608 21.6346C44.1053 22.0672 43.9302 22.4851 43.7261 22.8933L52.3549 31.8841C52.6125 31.1891 52.982 29.9256 52.982 29.9256Z" fill="#B8D8D8"/>
<path d="M50.065 36.5204L41.8931 25.78L41.7765 25.814C41.5042 26.1251 41.2174 26.4264 40.916 26.718L48.8496 38.2505C49.3115 37.6576 50.065 36.5204 50.065 36.5204Z" fill="#B8D8D8"/>
<path d="M52.2477 32.1756L43.6287 23.2043L43.5558 23.2383C43.3613 23.6077 43.1474 23.9673 42.9189 24.3172L42.9481 24.3464L51.4699 34.0029C51.7713 33.3663 52.2477 32.1756 52.2477 32.1756Z" fill="#B8D8D8"/>
<path d="M25.9188 38.4158L25.3597 29.2792C25.2576 29.1917 25.1604 29.1042 25.0632 29.0119L24.9903 37.4681C24.9854 37.4729 25.6222 38.1533 25.9188 38.4158Z" fill="#B8D8D8"/>
<path d="M53.4824 27.5442L44.7224 20.0843C44.7224 20.0843 44.5717 20.7695 44.4404 21.1826L53.0644 29.5999C53.2442 28.8758 53.4824 27.5442 53.4824 27.5442Z" fill="#B8D8D8"/>
<path d="M46.4241 6.55437L39.7642 3.862C40.1871 4.23621 41.2323 5.14015 41.2323 5.14015L47.9943 8.20187C47.4158 7.52635 46.4241 6.55437 46.4241 6.55437Z" fill="#B8D8D8"/>
<path d="M53.7358 25.3184L44.9563 18.7284C44.9563 18.7284 44.8737 19.2873 44.8008 19.6955L53.5365 27.2137C53.6289 26.5577 53.7358 25.3184 53.7358 25.3184Z" fill="#B8D8D8"/>
<path d="M35.792 1.18427L37.4448 2.06876L43.2686 4.01271C43.2686 4.01271 40.0651 2.17082 38.5532 1.70913C37.0754 1.25716 35.792 1.18427 35.792 1.18427Z" fill="#B8D8D8"/>
<path d="M53.594 20.6869L45.1743 15.4382C45.1743 15.4382 45.1743 16.0895 45.1597 16.4977L53.7641 22.6697C53.7301 21.931 53.594 20.6869 53.594 20.6869Z" fill="#B8D8D8"/>
<path d="M29.8759 41.1519L27.664 30.5816C27.4355 30.5039 27.2119 30.4164 26.9932 30.3143L28.8356 40.5444L29.8759 41.1519Z" fill="#B8D8D8"/>
<path d="M28.8749 30.8829C28.5687 30.8343 28.2673 30.7663 27.9756 30.6837L30.1972 41.3073C30.1972 41.3073 30.9604 41.6767 31.3639 41.8565L28.8749 30.8829Z" fill="#B8D8D8"/>
<path d="M27.1487 39.4071L26.0597 29.7991C25.9236 29.7067 25.7875 29.6144 25.6562 29.5172L26.191 38.6198C26.1959 38.6198 26.891 39.2029 27.1487 39.4071Z" fill="#B8D8D8"/>
<path d="M28.5392 40.3694L26.6822 30.1588C26.5752 30.1054 26.4732 30.0471 26.3662 29.9839L27.4406 39.5919C27.4406 39.5967 28.1406 40.1119 28.5392 40.3694Z" fill="#B8D8D8"/>
<path d="M53.2397 18.6555L45.0728 13.7275C45.1214 14.1455 45.1408 14.6363 45.1603 15.0737L53.5411 20.2932C53.4488 19.6712 53.2397 18.6555 53.2397 18.6555Z" fill="#B8D8D8"/>
<path d="M50.8769 12.3474L43.6968 8.79968C43.8669 9.15931 44.2072 9.99035 44.2072 9.99035L51.7276 14.0532C51.4311 13.3923 50.8769 12.3474 50.8769 12.3474Z" fill="#B8D8D8"/>
<path d="M51.912 14.4808L44.2847 10.3159C44.4256 10.7241 44.7027 11.6427 44.7027 11.6427L52.5245 16.0992C52.3155 15.4771 51.912 14.4808 51.912 14.4808Z" fill="#B8D8D8"/>
<path d="M49.7397 10.4812L42.8853 7.41461C43.1235 7.79368 43.5658 8.51294 43.5658 8.51294L50.6196 11.8954C50.2987 11.3414 49.7397 10.4812 49.7397 10.4812Z" fill="#B8D8D8"/>
<path d="M52.6657 16.5025L44.771 11.9828C44.8634 12.4008 44.9703 12.9354 45.0335 13.3776L53.1567 18.257C52.9963 17.596 52.6657 16.5025 52.6657 16.5025Z" fill="#B8D8D8"/>
<path d="M38.2718 1.45636C36.4634 0.950929 35.5397 1.05785 35.5397 1.05785L33.4883 0.270546C33.4883 0.270546 33.5515 0.265686 33.6681 0.265686C35.2529 0.50382 36.7988 0.90719 38.2718 1.45636Z" fill="#B8D8D8"/>
<path d="M36.2593 20.1766L36.2641 20.1815C36.4051 20.4245 36.5266 20.6723 36.6336 20.9202L45.0339 13.3776C44.9707 12.9014 44.8881 12.4397 44.7908 11.9926L44.7714 11.9828L36.2593 20.1766Z" fill="#7A9E9F"/>
<path d="M33.7604 29.9352C33.7069 29.9693 33.6486 30.0033 33.5903 30.0373C33.4396 30.1248 33.284 30.2025 33.1333 30.2754L33.5903 30.6108C33.5903 30.6108 34.4361 30.4844 34.8056 30.3775L33.7604 29.9352Z" fill="#7A9E9F"/>
<path d="M34.5281 29.3958C34.3726 29.5222 34.2121 29.6388 34.042 29.7506L35.0434 30.2317C35.0434 30.2317 35.9573 29.9839 36.3317 29.8332L34.5281 29.3958Z" fill="#7A9E9F"/>
<path d="M31.9521 30.7226C31.7673 30.7761 31.4562 30.8344 31.2715 30.8733C31.2715 30.8733 31.8646 30.917 32.0882 30.8927L31.9521 30.7226Z" fill="#7A9E9F"/>
<path d="M32.8312 30.4115C32.6611 30.4844 32.4909 30.5524 32.3208 30.6108L32.3354 30.81C32.3354 30.81 33.0597 30.776 33.3271 30.7274L32.8312 30.4115Z" fill="#7A9E9F"/>
<path d="M36.4193 27.0728C36.4193 27.0728 36.4388 27.0339 36.3999 27.1116L42.073 25.5225C42.073 25.5225 42.5446 24.9782 42.7974 24.6039L36.4193 27.0728Z" fill="#7A9E9F"/>
<path d="M36.9204 25.8238C36.8864 25.9356 36.8523 26.0523 36.8086 26.164L43.7262 22.8933C43.7262 22.8933 44.1394 22.0963 44.3096 21.6055L36.9204 25.8238Z" fill="#7A9E9F"/>
<path d="M34.7959 29.1723L36.5654 29.6534C36.5654 29.6534 37.3578 29.3667 37.7661 29.1382L35.1167 28.8661C35.0147 28.9681 34.9077 29.0751 34.7959 29.1723Z" fill="#7A9E9F"/>
<path d="M35.3696 28.5988L37.9753 28.9293C37.9753 28.9293 38.933 28.4238 39.2732 28.1808L35.5835 28.3461C35.5155 28.4336 35.4425 28.521 35.3696 28.5988Z" fill="#7A9E9F"/>
<path d="M36.5991 26.6985L42.9188 24.3172C42.9188 24.3172 43.4827 23.4813 43.6285 23.2043L36.6623 26.5479C36.6429 26.5965 36.6234 26.6451 36.5991 26.6985Z" fill="#7A9E9F"/>
<path d="M30.1581 14.1067L37.4451 2.06876C36.8083 1.68483 35.7923 1.18427 35.7923 1.18427L29.1323 13.5964L30.1581 14.1067Z" fill="#7A9E9F"/>
<path d="M16.3423 14.2039C16.3423 14.2039 17.2513 13.7616 17.6694 13.5818L19.2396 2.56445C18.875 2.74913 18.5153 2.93866 18.1604 3.14764C17.8979 3.29829 17.5382 3.52185 17.5382 3.52185L16.3423 14.2039Z" fill="#7A9E9F"/>
<path d="M7.69385 25.7169L6.72159 18.8888C6.53687 19.7636 6.37158 21.0514 6.37158 21.0514L7.59177 28.0594C7.63066 27.4762 7.69385 25.7169 7.69385 25.7169Z" fill="#7A9E9F"/>
<path d="M30.5854 14.3448L31.6792 15.0495L39.6031 3.59474C39.1073 3.18651 38.6114 2.82202 38.1204 2.4964L37.6295 2.31659L30.5854 14.3448Z" fill="#7A9E9F"/>
<path d="M9.12343 21.202L8.41855 13.7712C8.13173 14.3884 7.77686 15.2972 7.77686 15.2972L8.36993 23.2577C8.56438 22.7231 9.12343 21.202 9.12343 21.202Z" fill="#7A9E9F"/>
<path d="M34.29 17.4114C34.29 17.4114 34.7567 18.0189 34.7762 18.0189L43.5654 8.51294C43.3806 8.14359 43.1862 7.79368 42.9772 7.45835L42.8848 7.41461L34.29 17.4114Z" fill="#7A9E9F"/>
<path d="M35.7095 19.365C35.8456 19.5448 35.9768 19.7344 36.0984 19.9288L44.7029 11.6427C44.591 11.1907 44.4646 10.7582 44.3237 10.3402L44.2848 10.3159L35.7095 19.365Z" fill="#7A9E9F"/>
<path d="M32.0537 15.3216L32.9433 16.0506L41.2318 5.14015C40.8478 4.7222 40.4492 4.33341 40.0457 3.97864L39.7637 3.862L32.0537 15.3216Z" fill="#7A9E9F"/>
<path d="M34.9854 18.291L35.5493 19.1269L44.2072 9.99035C44.0565 9.58212 43.8912 9.18847 43.7114 8.8094L43.6968 8.79968L34.9854 18.291Z" fill="#7A9E9F"/>
<path d="M33.2549 16.3373L34.0278 17.1197L42.7636 7.11323C42.3892 6.53491 41.9858 6.00518 41.5628 5.51433L41.3732 5.422L33.2549 16.3373Z" fill="#7A9E9F"/>
<path d="M41.893 25.78L36.2053 27.4567C36.1859 27.4858 36.1713 27.515 36.1519 27.549L40.9159 26.718C40.9208 26.718 41.5916 26.1299 41.893 25.78Z" fill="#7A9E9F"/>
<path d="M35.9481 27.8698C35.9044 27.933 35.8606 27.9962 35.812 28.0545L39.4677 27.9524C39.4677 27.9524 40.4448 27.2526 40.7511 26.9756L35.9481 27.8698Z" fill="#7A9E9F"/>
<path d="M28.5151 0.0373239L24.0962 12.3328L25.3455 12.4689L30.7853 0.00816459C29.9832 -0.0209947 28.5151 0.0373239 28.5151 0.0373239Z" fill="#7A9E9F"/>
<path d="M33.488 0.265686L27.5913 13.0034L28.6608 13.3922L35.5347 1.05785C34.3388 0.50868 33.488 0.265686 33.488 0.265686Z" fill="#7A9E9F"/>
<path d="M23.916 0.775951L20.8242 12.5369C20.8242 12.5369 21.8451 12.3716 22.3021 12.3425L25.9286 0.338562C25.1994 0.464919 23.916 0.775951 23.916 0.775951Z" fill="#7A9E9F"/>
<path d="M31.0911 0.0178223L25.8555 12.5563L27.1097 12.8576L33.1912 0.207357C32.4522 0.1053 31.0911 0.0178223 31.0911 0.0178223Z" fill="#7A9E9F"/>
<path d="M26.2346 0.290037L22.7588 12.3134L23.6047 12.3085L28.2083 0.0567627C27.5034 0.110221 26.2346 0.290037 26.2346 0.290037Z" fill="#7A9E9F"/>
<path d="M44.7227 20.0843L37.1051 25.0462C37.0808 25.1774 37.0516 25.3087 37.0225 25.435L44.4359 21.1778C44.4359 21.1826 44.6401 20.4731 44.7227 20.0843Z" fill="#7A9E9F"/>
<path d="M21.6017 1.52443L19.3169 12.9451L20.4058 12.6341L23.5948 0.868347C22.8754 1.0676 21.6017 1.52443 21.6017 1.52443Z" fill="#7A9E9F"/>
<path d="M6.90186 18.0918L7.83522 25.4399C7.95189 24.8859 8.19496 23.5251 8.19496 23.5251L7.54841 15.9097C7.25673 16.7504 6.90186 18.0918 6.90186 18.0918Z" fill="#7A9E9F"/>
<path d="M19.546 2.4138L18.0244 13.4311C18.0244 13.4311 18.5446 13.2124 18.9383 13.0764L21.2863 1.64594C20.669 1.88893 19.546 2.4138 19.546 2.4138Z" fill="#7A9E9F"/>
<path d="M7.54817 30.222C7.48983 29.5853 7.47039 28.3509 7.47039 28.3509L6.26965 22.1011C5.83213 25.4399 7.54817 30.222 7.54817 30.222Z" fill="#7A9E9F"/>
<path d="M15.5983 4.84369L15.083 14.9085L16.0018 14.3836L17.2366 3.70648C16.6095 4.10499 15.5983 4.84369 15.5983 4.84369Z" fill="#7A9E9F"/>
<path d="M45.1741 15.4382L37.085 22.3976C37.1336 22.6357 37.1627 22.8738 37.187 23.112L45.1596 16.4977C45.1596 16.4977 45.179 15.793 45.1741 15.4382Z" fill="#7A9E9F"/>
<path d="M36.7451 21.202C36.8569 21.4936 36.9444 21.7852 37.0174 22.0817L45.16 15.0737L45.1649 15.0786C45.1503 14.612 45.1163 14.1649 45.0676 13.7275L36.7451 21.202Z" fill="#7A9E9F"/>
<path d="M44.9557 18.7284L37.2068 24.1763C37.1971 24.3416 37.1825 24.5068 37.1631 24.6672L44.7953 19.6955C44.7953 19.6955 44.9071 19.054 44.9557 18.7284Z" fill="#7A9E9F"/>
<path d="M45.1412 16.8816L37.2124 23.4619C37.2173 23.5834 37.2173 23.7 37.2173 23.8215L45.0002 18.3444C45.0682 17.8438 45.112 17.3579 45.1412 16.8816Z" fill="#7A9E9F"/>
<path d="M14.0141 6.16076L13.6592 15.8708C13.9946 15.6229 14.403 15.3459 14.7773 15.1078L15.2877 5.08673C14.7919 5.47552 14.0141 6.16076 14.0141 6.16076Z" fill="#7A9E9F"/>
<path d="M9.71631 11.3511L10.1101 19.5303C10.3386 19.2047 10.8782 18.5048 10.8782 18.5048L10.7712 9.76678C10.3483 10.35 9.71631 11.3511 9.71631 11.3511Z" fill="#7A9E9F"/>
<path d="M11.0483 9.38767L11.1115 18.2229C11.3984 17.8973 12.0449 17.2364 12.0449 17.2364L12.147 8.05121C11.7143 8.54206 11.0483 9.38767 11.0483 9.38767Z" fill="#7A9E9F"/>
<path d="M8.66113 13.2611L9.32227 20.9445C9.53616 20.546 9.92507 19.8025 9.92507 19.8025L9.45352 11.7934C9.12782 12.3523 8.66113 13.2611 8.66113 13.2611Z" fill="#7A9E9F"/>
<path d="M12.4286 7.73047L12.3022 16.9885C12.6182 16.7018 13.3766 16.0797 13.3766 16.0797L13.712 6.43774C13.2113 6.89943 12.4286 7.73047 12.4286 7.73047Z" fill="#7A9E9F"/>
<path d="M7.7329 32.3991C7.7329 32.3991 7.72804 32.3991 7.7329 32.3943C6.90162 30.2656 6.37174 27.9912 6.18701 25.6147C7.11552 30.4503 7.54817 30.5135 7.56762 30.5135L7.93221 32.681C7.86902 32.6081 7.80096 32.5158 7.7329 32.3991Z" fill="#7A9E9F"/>
<path d="M23.6825 20.1914C23.6825 20.1914 23.6825 20.1865 23.6874 20.1865C23.8235 19.9435 23.9791 19.7151 24.1395 19.4915L13.3766 16.0799C12.9974 16.3763 12.6377 16.6825 12.3022 16.9887V17.0081L23.6825 20.1914Z" fill="#7A9E9F"/>
<path d="M33.3618 17.3969C33.4202 17.426 33.4785 17.4552 33.5368 17.4892C33.6875 17.5767 33.8334 17.669 33.9744 17.7613L34.0278 17.1198C34.0278 17.1198 33.5368 16.5998 33.2549 16.3374L33.3618 17.3969Z" fill="#7A9E9F"/>
<path d="M32.5107 17.0032C32.6954 17.0761 32.8801 17.1538 33.0649 17.2413L32.9482 16.0506C32.9482 16.0506 32.3794 15.5646 32.0586 15.3217L32.5107 17.0032Z" fill="#7A9E9F"/>
<path d="M34.9023 18.4951C35.0433 18.6263 35.4176 18.986 35.5489 19.1269C35.5489 19.1269 35.1162 18.4708 34.985 18.291L34.9023 18.4951Z" fill="#7A9E9F"/>
<path d="M34.2466 17.9508C34.3973 18.0577 34.5383 18.1744 34.6744 18.291L34.7765 18.0189C34.7765 18.0189 34.4653 17.6155 34.2903 17.4114L34.2466 17.9508Z" fill="#7A9E9F"/>
<path d="M29.5501 16.5512C29.5501 16.5512 29.5063 16.5512 29.5938 16.5512L25.3499 12.4689L24.1006 12.3328L29.5501 16.5512Z" fill="#7A9E9F"/>
<path d="M28.2231 16.7554C28.3398 16.7262 28.4564 16.7019 28.5731 16.6776L22.3021 12.3426C22.3021 12.3426 21.3347 12.4398 20.8242 12.537L28.2231 16.7554Z" fill="#7A9E9F"/>
<path d="M32.1853 16.8914L31.6846 15.0544C31.6846 15.0544 30.9943 14.5829 30.5908 14.3497L31.7575 16.7699C31.8985 16.8039 32.0395 16.8428 32.1853 16.8914Z" fill="#7A9E9F"/>
<path d="M31.4025 16.6874L30.1581 14.1068C30.1581 14.1068 29.5115 13.7666 29.1323 13.5965L31.0768 16.6291C31.1838 16.6436 31.2907 16.6631 31.4025 16.6874Z" fill="#7A9E9F"/>
<path d="M29.1324 16.5901L23.6003 12.3134C23.6003 12.3134 23.0655 12.3086 22.7544 12.3183L28.9671 16.6144C29.0255 16.5998 29.0789 16.595 29.1324 16.5901Z" fill="#7A9E9F"/>
<path d="M21.5094 28.1177L7.46999 28.3462C7.46027 29.0897 7.54777 30.2172 7.54777 30.2172L21.5142 29.6146L21.5774 29.4931C21.5337 29.0363 21.5094 28.5794 21.5094 28.1177Z" fill="#7A9E9F"/>
<path d="M28.5388 40.3695L28.534 40.3501C28.1742 40.1168 27.8096 39.869 27.4402 39.5968L17.1294 43.7812C17.4745 43.9999 17.8197 44.2137 18.1794 44.4178C18.4419 44.5685 18.8211 44.7629 18.8211 44.7629L28.5388 40.3695Z" fill="#7A9E9F"/>
<path d="M42.7295 42.1239L37.5522 46.2985C38.3981 46.0118 39.594 45.5015 39.594 45.5015L44.4164 41.3852C43.8914 41.6476 42.7295 42.1239 42.7295 42.1239Z" fill="#7A9E9F"/>
<path d="M21.4368 27.8359L21.5146 27.7387C21.5243 27.3353 21.5438 26.9368 21.5875 26.5383L7.69885 25.717C7.59676 26.3488 7.53356 26.966 7.50439 27.5492L7.59676 28.0643L21.4368 27.8359Z" fill="#7A9E9F"/>
<path d="M38.0963 43.1153L32.2725 47.426C32.9482 47.358 33.9156 47.2073 33.9156 47.2073L40.0845 42.8723C39.5255 42.9744 38.0963 43.1153 38.0963 43.1153Z" fill="#7A9E9F"/>
<path d="M22.2537 23.1946H22.3121L22.6718 22.2956L9.92551 19.8073C9.70189 20.1524 9.49772 20.4974 9.31299 20.8473L9.32271 20.9494L22.2537 23.1946Z" fill="#7A9E9F"/>
<path d="M23.2645 21.071C23.3472 20.862 23.4444 20.653 23.5514 20.4489L12.0447 17.2317C11.7093 17.5524 11.403 17.8829 11.1113 18.2182V18.2668L23.2645 21.071Z" fill="#7A9E9F"/>
<path d="M21.5388 26.2515H21.6068L21.8304 24.9345L8.19939 23.5251C8.0341 24.0695 7.90285 24.6089 7.7959 25.1338L7.83965 25.4351L21.5388 26.2515Z" fill="#7A9E9F"/>
<path d="M22.793 22.0186C22.793 22.0186 23.0166 21.5666 23.143 21.3382L10.8779 18.5098C10.6009 18.8451 10.3432 19.1901 10.1099 19.5352V19.5546L22.793 22.0186Z" fill="#7A9E9F"/>
<path d="M21.8261 24.6478L21.8893 24.6672L22.2198 23.4814L9.12353 21.207C8.81727 21.8193 8.55962 22.4414 8.35059 23.0537L8.37003 23.2627L21.8261 24.6478Z" fill="#7A9E9F"/>
<path d="M25.8555 12.5564L29.9924 16.5415C30.0265 16.5415 30.0605 16.5415 30.0945 16.5415L27.1048 12.8577L25.8555 12.5564Z" fill="#7A9E9F"/>
<path d="M30.4789 16.5561C30.5567 16.561 30.6296 16.5707 30.7074 16.5756L28.6608 13.3972C28.6608 13.3972 27.9899 13.1348 27.5913 13.0084L30.4789 16.5561Z" fill="#7A9E9F"/>
<path d="M10.2458 37.0696L22.8802 34.4453L22.8997 34.3433C22.7441 34.0176 22.6032 33.6823 22.4768 33.347L9.06934 35.1306C9.45338 35.8352 10.2458 37.0696 10.2458 37.0696Z" fill="#7A9E9F"/>
<path d="M7.92761 32.6715L21.8357 31.5002L21.8795 31.3739C21.7677 30.8879 21.685 30.3971 21.6218 29.8965L7.56787 30.504C7.69913 31.8161 7.92761 32.6715 7.92761 32.6715Z" fill="#7A9E9F"/>
<path d="M13.216 40.6611L24.7372 37.2495V37.196C24.4407 36.851 24.1636 36.4865 23.906 36.1074L11.8208 39.1497C12.2972 39.7134 13.216 40.6611 13.216 40.6611Z" fill="#7A9E9F"/>
<path d="M8.92373 34.8633L22.302 33.0846L22.3312 32.968C22.195 32.5743 22.0735 32.1758 21.9714 31.7725L8.01953 32.9534C8.31121 33.6435 8.92373 34.8633 8.92373 34.8633Z" fill="#7A9E9F"/>
<path d="M11.6211 38.9066L23.6869 35.8643L23.6966 35.7817C23.473 35.4318 23.2639 35.0673 23.0743 34.6931L23.0354 34.7028L10.4204 37.3223C10.8239 37.9055 11.6211 38.9066 11.6211 38.9066Z" fill="#7A9E9F"/>
<path d="M19.3169 12.9452L27.4547 16.9935C27.5811 16.9498 27.7075 16.906 27.8339 16.8672L20.4058 12.6342L19.3169 12.9452Z" fill="#7A9E9F"/>
<path d="M15.034 42.2745L25.9185 38.4158V38.3818C25.5879 38.095 25.2816 37.7889 24.99 37.473L24.9219 37.4924L13.459 40.8943C13.9937 41.4095 15.034 42.2745 15.034 42.2745Z" fill="#7A9E9F"/>
<path d="M36.7695 46.5415L42.1753 42.3183C41.6405 42.503 40.5759 42.7654 40.5759 42.7654L34.5625 47.0907C35.4375 46.9157 36.7695 46.5415 36.7695 46.5415Z" fill="#7A9E9F"/>
<path d="M16.8427 43.5917L27.1487 39.4073L27.1438 39.383C26.8278 39.1449 26.507 38.8873 26.191 38.6249L15.292 42.4836C15.8219 42.8919 16.8427 43.5917 16.8427 43.5917Z" fill="#7A9E9F"/>
<path d="M45.1306 41.011L40.5513 45.0593L42.1652 44.1116C43.366 43.407 44.4549 42.5225 45.3882 41.4873L46.7202 40.0148L45.1306 41.011Z" fill="#7A9E9F"/>
<path d="M20.9407 45.7689L29.8758 41.152V41.1423L28.8403 40.5445L19.1323 44.933C19.7886 45.2732 20.9407 45.7689 20.9407 45.7689Z" fill="#7A9E9F"/>
<path d="M15.083 14.9086L25.1848 18.3494C25.3646 18.189 25.5542 18.0384 25.7487 17.8974L15.9969 14.3837L15.083 14.9086Z" fill="#7A9E9F"/>
<path d="M24.3248 19.2485C24.5193 19.0055 24.7283 18.7819 24.9471 18.5681L14.7773 15.103V15.0933C14.3835 15.3411 14.0141 15.5987 13.6592 15.8611L24.3248 19.2485Z" fill="#7A9E9F"/>
<path d="M18.0288 13.4312L26.6527 17.3434C26.7986 17.2657 26.9493 17.1976 27.1 17.1296L18.9427 13.0716C18.9427 13.0765 18.3351 13.3049 18.0288 13.4312Z" fill="#7A9E9F"/>
<path d="M16.3423 14.2039L26.0357 17.703C26.1378 17.6398 26.2399 17.5767 26.3419 17.5135L17.6743 13.5818C17.2076 13.7811 16.7652 13.9901 16.3423 14.2039Z" fill="#7A9E9F"/>
<path d="M22.8803 46.4638L31.3632 41.8566L30.1965 41.3074L21.3101 45.9097C21.8934 46.143 22.8803 46.4638 22.8803 46.4638Z" fill="#7A9E9F"/>
<path d="M29.5311 47.5378L36.1376 43.057L34.9952 42.9161L27.6304 47.4309C28.3498 47.4989 29.5311 47.5378 29.5311 47.5378Z" fill="#7A9E9F"/>
<path d="M27.1633 47.3823L34.5622 42.8431C34.1393 42.7605 33.3128 42.5467 33.3128 42.5467L25.4521 47.115C26.0987 47.2365 27.1633 47.3823 27.1633 47.3823Z" fill="#7A9E9F"/>
<path d="M31.7138 47.4746L37.7758 43.0716C37.3286 43.091 36.5994 43.091 36.5994 43.091L30.0464 47.5427C30.6929 47.5378 31.7138 47.4746 31.7138 47.4746Z" fill="#7A9E9F"/>
<path d="M25.0342 47.0324L32.924 42.4301L31.6893 41.9927V42.0024L23.2646 46.5853C23.9209 46.7797 25.0342 47.0324 25.0342 47.0324Z" fill="#7A9E9F"/>
<path d="M48.6696 38.5179C47.7168 39.7182 46.6521 40.8263 45.4903 41.8177C45.1354 42.1239 44.9653 42.2454 45.1792 42.0073C46.691 40.316 46.9778 39.8397 46.9778 39.8397L48.6598 38.4741C48.6598 38.479 48.6647 38.4936 48.6696 38.5179Z" fill="#7A9E9F"/>
<path d="M5.26056 56.5619H4.30365L4.17115 55.7083C4.04356 55.5807 3.88653 55.4826 3.69515 55.4091C3.50377 55.3355 3.27803 55.3011 3.01795 55.3011C2.46343 55.3011 2.0316 55.5023 1.73225 55.9094C1.43291 56.3117 1.28079 56.8415 1.28079 57.489V57.7147C1.28079 58.3671 1.42801 58.892 1.72735 59.2992C2.02669 59.7064 2.44871 59.9075 2.99342 59.9075C3.24368 59.9075 3.47432 59.8683 3.68534 59.7996C3.89635 59.726 4.05829 59.6279 4.17115 59.5003L4.30365 58.6468H5.25565V59.9124C4.99557 60.2117 4.67169 60.4471 4.2693 60.6286C3.87181 60.8052 3.42034 60.8935 2.92962 60.8935C2.07085 60.8935 1.36912 60.5943 0.819509 60.0007C0.274805 59.4071 0 58.6468 0 57.7147V57.4988C0 56.5717 0.274805 55.8064 0.814601 55.2128C1.3593 54.6143 2.06595 54.32 2.92962 54.32C3.42525 54.32 3.87181 54.4083 4.2693 54.5898C4.66678 54.7713 4.99557 55.0068 5.25565 55.306V56.5619H5.26056Z" fill="#7A9E9F"/>
<path d="M7.64551 55.1784V54.4033H10.2954V55.1784L9.6084 55.3109V57.1554H12.2191V55.3109L11.532 55.1784V54.4033H12.2191H13.4949H14.1819V55.1784L13.4949 55.3109V59.8976L14.1819 60.0301V60.8002H11.532V60.0301L12.2191 59.8976V58.1414H9.6084V59.8976L10.2954 60.0301V60.8002H7.64551V60.0301L8.32761 59.8976V55.3109L7.64551 55.1784Z" fill="#7A9E9F"/>
<path d="M16.4736 55.1784V54.4033H19.1235V55.1784L18.4365 55.3109V59.8976L19.1235 60.0301V60.8002H16.4736V60.0301L17.1606 59.8976V55.3109L16.4736 55.1784Z" fill="#7A9E9F"/>
<path d="M27.9466 54.4081V55.1832L27.2596 55.3157V60.8051H25.9837L23.4025 56.5028L23.3779 56.5077V59.9073L24.0649 60.0398V60.81H21.415V60.0398L22.0971 59.9073V55.3206L21.415 55.1881V54.4131H22.0971H23.3779L25.9591 58.7153L25.9837 58.7104V55.3157L25.2967 55.1832V54.4081H27.2596H27.9466Z" fill="#7A9E9F"/>
<path d="M32.9669 58.5632H30.4888V57.5772H32.9669V58.5632Z" fill="#7A9E9F"/>
<path d="M43.8216 55.1784L43.2966 55.2422L42.001 60.7953H40.8086L39.6358 56.5765H39.6112L38.4384 60.7953H37.2459L35.9406 55.2422L35.4155 55.1784V54.4033H37.771V55.1784L37.187 55.2814L37.9182 58.784L37.9428 58.7889L39.1401 54.4082H40.0921L41.2993 58.7889L41.3238 58.784L42.055 55.2814L41.4711 55.1784V54.4033H43.8216V55.1784Z" fill="#7A9E9F"/>
<path d="M45.1812 60.0349L45.6375 59.9711L47.5857 54.4131H48.9008L50.8343 59.9711L51.2907 60.0349V60.8051H49.1118V60.0349L49.5584 59.9564L49.2787 59.0783H47.2078L46.9281 59.9564L47.3698 60.0349V60.8051H45.191V60.0349H45.1812ZM47.5023 58.1315H48.9695L48.2482 55.8799H48.2236L47.5023 58.1315Z" fill="#7A9E9F"/>
<path d="M58.5481 60.0888C58.342 60.2949 58.0377 60.4813 57.6402 60.6432C57.2428 60.81 56.7373 60.8934 56.1288 60.8934C55.2651 60.8934 54.5634 60.6039 54.0187 60.0251C53.4789 59.4462 53.2041 58.6957 53.2041 57.7685V57.5477C53.2041 56.5911 53.474 55.8112 54.004 55.2127C54.5389 54.6142 55.2357 54.3149 56.0945 54.3149C56.595 54.3149 57.0514 54.3934 57.4685 54.5553C57.8807 54.7172 58.2291 54.933 58.5039 55.2029V56.4881H57.5568L57.3753 55.6296C57.2575 55.5315 57.1054 55.4481 56.914 55.3893C56.7226 55.3304 56.5018 55.301 56.2515 55.301C55.6921 55.301 55.2553 55.507 54.9462 55.9191C54.637 56.3311 54.48 56.8708 54.48 57.5379V57.7685C54.48 58.416 54.6321 58.936 54.9364 59.3236C55.2406 59.7111 55.6823 59.9073 56.2564 59.9073C56.5165 59.9073 56.7226 59.8828 56.8845 59.8387C57.0465 59.7945 57.1692 59.7455 57.2624 59.6866V58.6024L56.3496 58.5338V57.636H58.5481V60.0888Z" fill="#7A9E9F"/>
<path d="M60.4258 55.033V53.4483H61.2289C61.2933 53.4483 61.3635 53.4669 61.4394 53.5041C61.5152 53.5399 61.5797 53.5958 61.6326 53.6716C61.687 53.7461 61.7142 53.8406 61.7142 53.9551C61.7142 54.071 61.6863 54.1698 61.6305 54.2514C61.5746 54.3316 61.5066 54.3924 61.4265 54.4339C61.3477 54.4755 61.2733 54.4962 61.2032 54.4962H60.6234V54.2385H61.0958C61.143 54.2385 61.1939 54.2149 61.2483 54.1677C61.3041 54.1204 61.332 54.0496 61.332 53.9551C61.332 53.8577 61.3041 53.7919 61.2483 53.7575C61.1939 53.7232 61.1459 53.706 61.1044 53.706H60.7737V55.033H60.4258ZM61.3835 54.2858L61.7786 55.033H61.3964L61.0099 54.2858H61.3835ZM61.0271 55.9779C60.7894 55.9779 60.5668 55.9335 60.3593 55.8447C60.1517 55.756 59.9692 55.6329 59.8117 55.4754C59.6542 55.3179 59.5311 55.1354 59.4423 54.9278C59.3536 54.7203 59.3092 54.4976 59.3092 54.26C59.3092 54.0224 59.3536 53.7998 59.4423 53.5922C59.5311 53.3846 59.6542 53.2021 59.8117 53.0446C59.9692 52.8872 60.1517 52.764 60.3593 52.6753C60.5668 52.5865 60.7894 52.5421 61.0271 52.5421C61.2647 52.5421 61.4873 52.5865 61.6949 52.6753C61.9025 52.764 62.085 52.8872 62.2425 53.0446C62.3999 53.2021 62.523 53.3846 62.6118 53.5922C62.7006 53.7998 62.7449 54.0224 62.7449 54.26C62.7449 54.4976 62.7006 54.7203 62.6118 54.9278C62.523 55.1354 62.3999 55.3179 62.2425 55.4754C62.085 55.6329 61.9025 55.756 61.6949 55.8447C61.4873 55.9335 61.2647 55.9779 61.0271 55.9779ZM61.0271 55.5656C61.2676 55.5656 61.4866 55.5069 61.6842 55.3895C61.8817 55.2721 62.0392 55.1146 62.1566 54.9171C62.274 54.7195 62.3327 54.5005 62.3327 54.26C62.3327 54.0195 62.274 53.8005 62.1566 53.6029C62.0392 53.4054 61.8817 53.2479 61.6842 53.1305C61.4866 53.0131 61.2676 52.9544 61.0271 52.9544C60.7866 52.9544 60.5675 53.0131 60.37 53.1305C60.1724 53.2479 60.015 53.4054 59.8976 53.6029C59.7802 53.8005 59.7215 54.0195 59.7215 54.26C59.7215 54.5005 59.7802 54.7195 59.8976 54.9171C60.015 55.1146 60.1724 55.2721 60.37 55.3895C60.5675 55.5069 60.7866 55.5656 61.0271 55.5656Z" fill="#7A9E9F"/>
</svg>
